<svg xmlns="http://www.w3.org/2000/svg">
  <symbol id="icon-arrow-back" viewBox="0 -960 960 960"><path d="m313-440 224 224-57 56-320-320 320-320 57 56-224 224h487v80H313Z"/></symbol>
  <symbol id="icon-check-circle" viewBox="0 -960 960 960"><path d="m424-296 282-282-56-56-226 226-114-114-56 56 170 170Zm56 216q-83 0-156-31.5T197-197q-54-54-85.5-127T80-480q0-83 31.5-156T197-763q54-54 127-85.5T480-880q83 0 156 31.5T763-763q54 54 85.5 127T880-480q0 83-31.5 156T763-197q-54 54-127 85.5T480-80Zm0-80q134 0 227-93t93-227q0-134-93-227t-227-93q-134 0-227 93t-93 227q0 134 93 227t227 93Zm0-320Z"/></symbol>
  <symbol id="icon-checklist" viewBox="0 -960 960 960"><path d="M222-200 80-342l56-56 85 85 170-170 56 57-225 226Zm0-320L80-662l56-56 85 85 170-170 56 57-225 226Zm298 240v-80h360v80H520Zm0-320v-80h360v80H520Z"/></symbol>
  <symbol id="icon-close" viewBox="0 -960 960 960"><path d="m256-200-56-56 224-224-224-224 56-56 224 224 224-224 56 56-224 224 224 224-56 56-224-224-224 224Z"/></symbol>
  <symbol id="icon-coffee" viewBox="0 -960 960 960"><path d="M440-240q-117 0-198.5-81.5T160-520v-240q0-33 23.5-56.5T240-840h500q58 0 99 41t41 99q0 58-41 99t-99 41h-20v40q0 117-81.5 198.5T440-240ZM240-640h400v-120H240v120Zm200 320q83 0 141.5-58.5T640-520v-40H240v40q0 83 58.5 141.5T440-320Zm280-320h20q25 0 42.5-17.5T800-700q0-25-17.5-42.5T740-760h-20v120ZM160-120v-80h640v80H160Zm280-440Z"/></symbol>
  <symbol id="icon-expand-more" viewBox="0 -960 960 960"><path d="M480-345 240-585l56-56 184 184 184-184 56 56-240 240Z"/></symbol>
  <symbol id="icon-filter-1" viewBox="0 -960 960 960"><path d="M560-360h80v-400H480v80h80v320ZM320-240q-33 0-56.5-23.5T240-320v-480q0-33 23.5-56.5T320-880h480q33 0 56.5 23.5T880-800v480q0 33-23.5 56.5T800-240H320Zm0-80h480v-480H320v480ZM160-80q-33 0-56.5-23.5T80-160v-560h80v560h560v80H160Zm160-720v480-480Z"/></symbol>
  <symbol id="icon-gavel" viewBox="0 -960 960 960"><path d="M160-120v-80h480v80H160Zm226-194L160-540l84-86 228 226-86 86Zm254-254L414-796l86-84 226 226-86 86Zm184 408L302-682l56-56 522 522-56 56Z"/></symbol>
  <symbol id="icon-menu-book" viewBox="0 -960 960 960"><path d="M560-564v-68q33-14 67.5-21t72.5-7q26 0 51 4t49 10v64q-24-9-48.5-13.5T700-600q-38 0-73 9.5T560-564Zm0 220v-68q33-14 67.5-21t72.5-7q26 0 51 4t49 10v64q-24-9-48.5-13.5T700-380q-38 0-73 9t-67 27Zm0-110v-68q33-14 67.5-21t72.5-7q26 0 51 4t49 10v64q-24-9-48.5-13.5T700-490q-38 0-73 9.5T560-454ZM260-320q47 0 91.5 10.5T440-278v-394q-41-24-87-36t-93-12q-36 0-71.5 7T120-692v396q35-12 69.5-18t70.5-6Zm260 42q44-21 88.5-31.5T700-320q36 0 70.5 6t69.5 18v-396q-33-14-68.5-21t-71.5-7q-47 0-93 12t-87 36v394Zm-40 118q-48-38-104-59t-116-21q-42 0-82.5 11T100-198q-21 11-40.5-1T40-234v-482q0-11 5.5-21T62-752q46-24 96-36t102-12q58 0 113.5 15T480-740q51-30 106.5-45T700-800q52 0 102 12t96 36q11 5 16.5 15t5.5 21v482q0 23-19.5 35t-40.5 1q-37-20-77.5-31T700-240q-60 0-116 21t-104 59ZM280-494Z"/></symbol>
  <symbol id="icon-mic" viewBox="0 -960 960 960"><path d="M395-435q-35-35-35-85v-240q0-50 35-85t85-35q50 0 85 35t35 85v240q0 50-35 85t-85 35q-50 0-85-35Zm85-205Zm-40 520v-123q-104-14-172-93t-68-184h80q0 83 58.5 141.5T480-320q83 0 141.5-58.5T680-520h80q0 105-68 184t-172 93v123h-80Zm68.5-371.5Q520-503 520-520v-240q0-17-11.5-28.5T480-800q-17 0-28.5 11.5T440-760v240q0 17 11.5 28.5T480-480q17 0 28.5-11.5Z"/></symbol>
  <symbol id="icon-pause" viewBox="0 -960 960 960"><path d="M520-200v-560h240v560H520Zm-320 0v-560h240v560H200Zm400-80h80v-400h-80v400Zm-320 0h80v-400h-80v400Zm0-400v400-400Zm320 0v400-400Z"/></symbol>
  <symbol id="icon-play-arrow" viewBox="0 -960 960 960"><path d="M320-200v-560l440 280-440 280Zm80-280Zm0 134 210-134-210-134v268Z"/></symbol>
  <symbol id="icon-rate-review" viewBox="0 -960 960 960"><path d="M240-400h122l200-200q9-9 13.5-20.5T580-643q0-11-5-21.5T562-684l-36-38q-9-9-20-13.5t-23-4.5q-11 0-22.5 4.5T440-722L240-522v122Zm280-243-37-37 37 37ZM300-460v-38l101-101 20 18 18 20-101 101h-38Zm121-121 18 20-38-38 20 18Zm26 181h273v-80H527l-80 80ZM80-80v-720q0-33 23.5-56.5T160-880h640q33 0 56.5 23.5T880-800v480q0 33-23.5 56.5T800-240H240L80-80Zm126-240h594v-480H160v525l46-45Zm-46 0v-480 480Z"/></symbol>
  <symbol id="icon-refresh" viewBox="0 -960 960 960"><path d="M480-160q-134 0-227-93t-93-227q0-134 93-227t227-93q69 0 132 28.5T720-690v-110h80v280H520v-80h168q-32-56-87.5-88T480-720q-100 0-170 70t-70 170q0 100 70 170t170 70q77 0 139-44t87-116h84q-28 106-114 173t-196 67Z"/></symbol>
  <symbol id="icon-schedule" viewBox="0 -960 960 960"><path d="m612-292 56-56-148-148v-184h-80v216l172 172ZM480-80q-83 0-156-31.5T197-197q-54-54-85.5-127T80-480q0-83 31.5-156T197-763q54-54 127-85.5T480-880q83 0 156 31.5T763-763q54 54 85.5 127T880-480q0 83-31.5 156T763-197q-54 54-127 85.5T480-80Zm0-400Zm0 320q133 0 226.5-93.5T800-480q0-133-93.5-226.5T480-800q-133 0-226.5 93.5T160-480q0 133 93.5 226.5T480-160Z"/></symbol>
  <symbol id="icon-stop-circle" viewBox="0 -960 960 960"><path d="M320-320h320v-320H320v320ZM480-80q-83 0-156-31.5T197-197q-54-54-85.5-127T80-480q0-83 31.5-156T197-763q54-54 127-85.5T480-880q83 0 156 31.5T763-763q54 54 85.5 127T880-480q0 83-31.5 156T763-197q-54 54-127 85.5T480-80Zm0-80q134 0 227-93t93-227q0-134-93-227t-227-93q-134 0-227 93t-93 227q0 134 93 227t227 93Zm0-320Z"/></symbol>
</svg>
